# xmcd
#
# Track frame offsets:
#	150
#	17345
#	34426
#	52008
#	75184
#	92406
#	110432
#	128743
#	148011
#	165206
#	182287
#	199869
#	223037
#	240259
#	258232
#	276543
#
# Disc length: 3944 seconds
#
# Revision: 1
# Processed by: cddbd v1.5.2PL0 Copyright (c) Steve Scherf et al.
# Submitted via: audiograbber 1.83.01
#
DISCID=cc0f6610
DTITLE=Chartbuster Hot Hits - Cb60382M 9-08 vol2
DYEAR=2008
DGENRE=karaoke
TTITLE0=Trisha Yearwood - They call it falling in love for A reason (no voc)
TTITLE1=Phil Vassar - I would (no voc)
TTITLE2=Pat Green - Let Me (no voc)
TTITLE3=Carrie Underwood - Just a dream (no voc)
TTITLE4=Lee Brice - Upper Middle class white trash (no voc)
TTITLE5=Kid Rock - All summer long (no voc)
TTITLE6=Rissi Palmer - No Air (no voc)
TTITLE7=David Nail - I'm about to come alive (no voc)
TTITLE8=Trisha Yearwood - They call it falling in love for a reason (guide)
TTITLE9=Phil Vassar - I would (guide)
TTITLE10=Pat Green - Let Me (guide)
TTITLE11=Carrie Underwood - Just a dream (guide)
TTITLE12=Lee Brice - Upper middle class white trash  (guide)
TTITLE13=Kid Rock - All summer long (guide)
TTITLE14=Rassi Palmer - No air (guide)
TTITLE15=David Nail - I'm About to come alive (guide)
EXTD=
EXTT0=
EXTT1=
EXTT2=
EXTT3=
EXTT4=
EXTT5=
EXTT6=
EXTT7=
EXTT8=
EXTT9=
EXTT10=
EXTT11=
EXTT12=
EXTT13=
EXTT14=
EXTT15=
PLAYORDER=
